<svg id="Capa_1" data-name="Capa 1" xmlns="http://www.w3.org/2000/svg" viewBox="0 0 351 90.16"><title>Mesa de trabajo 2</title><path d="M123.59,10.07H125v15h-1.57V15.91c0-1.53,0-3,0-3h0L120,18.55h-.07l-3.45-5.64h0s0,1.47,0,3v9.15h-1.56v-15h1.39l3.62,6h0Z"/><path d="M136,14h1.56V25.06h-1.45V23.58a3.48,3.48,0,0,1-3.25,1.57h-.42c-1.9,0-3.38-.85-3.38-3.56V14h1.57v7.41c0,1.74.87,2.35,2.37,2.35h.38c1.77,0,2.62-.83,2.62-2.2Z"/><path d="M145.77,18.86c1.86.36,2.95,1.16,2.95,3V22c0,2.22-1.41,3.22-4.09,3.22h-.14c-2.08,0-3.17-.62-3.6-1.11V22.73h1.54v.54a3,3,0,0,0,2.2.62h.06c1.77,0,2.49-.51,2.49-1.81V22c0-1-.47-1.47-1.81-1.74L143.8,20c-2.08-.43-2.84-1.21-2.84-3v-.13c0-2,1.32-3,3.76-3h.2c2.1,0,3.18.71,3.51,1.32v1.27h-1.52v-.6a2.59,2.59,0,0,0-2.06-.69h-.07c-1.74,0-2.26.62-2.26,1.67v.09c0,.94.36,1.39,1.55,1.61Z"/><path d="M153.26,19.93v.83c0,2.42.9,3.11,2.94,3.11h.11c1.72,0,2.37-.56,2.53-1V22.4h1.54v1.07c-.38.76-1.59,1.74-4.09,1.74h-.07c-3.07,0-4.52-1.29-4.52-4.56V18.39c0-3.29,1.52-4.59,4.38-4.59h.09c2.87,0,4.39,1.3,4.39,4.59,0,.81,0,1.54,0,1.54Zm0-1.76v.56H159v-.56c0-2.35-.87-3-2.77-3h-.14C154.14,15.15,153.26,15.82,153.26,18.17Z"/><path d="M170.85,14h1.57V25.06H171V23.58a3.45,3.45,0,0,1-3.24,1.57h-.42c-1.91,0-3.38-.85-3.38-3.56V14h1.56v7.41c0,1.74.88,2.35,2.37,2.35h.38c1.77,0,2.62-.83,2.62-2.2Z"/><path d="M183.63,10.07l6.2,10.65c.45.78.87,1.61.87,1.61h.05s-.09-1.93-.09-3.65V10.07h1.61v15H190.7l-6.18-10.65-.89-1.61h0s.09,1.92.09,3.64v8.62h-1.61v-15Z"/><path d="M200.37,13.83c2.59,0,4,1,4,3.58v7.65h-1.48V23.8h0c-.34.63-1.35,1.35-3.18,1.35h-.38c-2.66,0-3.6-1.21-3.6-3.09v-.22c0-1.88,1.07-3,3.93-3h3.16V17.49c0-1.87-1-2.28-2.48-2.28h-.23c-1.63,0-2.24.56-2.24,1v.38h-1.56v-1c.24-.76,1.25-1.76,3.76-1.76Zm-.25,10c1.75,0,2.71-.74,2.71-2.28V20.05h-3.16c-1.67,0-2.39.56-2.39,1.79V22c0,1.24.56,1.84,2.31,1.84Z"/><path d="M216.28,16.85h-1.55v-.61c-.15-.4-.78-1-2.3-1h-.07c-1.79,0-2.79.55-2.79,3v2.55c0,2.44,1,3,2.79,3h.07c1.52,0,2.15-.61,2.3-1v-.61h1.55v1.32c-.4.79-1.57,1.7-3.81,1.7h-.17c-2.67,0-4.32-1.16-4.32-4.43V18.26c0-3.27,1.65-4.41,4.32-4.41h.17c2.24,0,3.41.87,3.81,1.68Z"/><path d="M221.38,14V25.06h-1.59V15.39h-1.48V14Zm-1.57-4.07h1.57v2.33h-1.57Z"/><path d="M234.13,18.05V21c0,2.86-1.65,4.25-4.43,4.25h-.22c-2.8,0-4.43-1.39-4.43-4.25V18.05c0-2.86,1.63-4.25,4.43-4.25h.22C232.48,13.8,234.13,15.19,234.13,18.05Zm-1.58.18c0-2.23-1-3-2.91-3h-.12c-1.9,0-2.88.76-2.88,3v2.58c0,2.26,1,3,2.88,3h.12c1.92,0,2.91-.76,2.91-3Z"/><path d="M242.88,13.89c2,0,3.56.88,3.56,3.58v7.59h-1.56V17.65c0-1.74-.94-2.35-2.56-2.35h-.24c-1.79,0-2.71.83-2.71,2.19v7.57H237.8V14h1.48v1.46a3.62,3.62,0,0,1,3.31-1.55Z"/><path d="M254.36,13.83c2.6,0,4,1,4,3.58v7.65h-1.48V23.8h0c-.33.63-1.34,1.35-3.18,1.35h-.38c-2.66,0-3.6-1.21-3.6-3.09v-.22c0-1.88,1.08-3,3.94-3h3.15V17.49c0-1.87-1-2.28-2.48-2.28h-.22c-1.64,0-2.24.56-2.24,1v.38h-1.57v-1c.25-.76,1.26-1.76,3.76-1.76Zm-.24,10c1.74,0,2.7-.74,2.7-2.28V20.05h-3.15c-1.68,0-2.39.56-2.39,1.79V22c0,1.24.55,1.84,2.3,1.84Z"/><path d="M265.33,25.06h-1.55c-1,0-1.5-.54-1.5-1.68V10.07h1.57v13c0,.36.11.54.56.54h.92Z"/><path d="M121.74,35h1.56V50h-1.54V48.58c-.61,1.14-1.7,1.61-3.31,1.61h-.07c-2.62,0-4-1.25-4-4.36V43.19c0-3.14,1.34-4.37,4-4.37h.07c1.58,0,2.7.45,3.31,1.59,0-.53,0-1.34,0-2Zm0,10.65V43.3c0-2.33-1-3.09-2.85-3.09h-.15c-1.84,0-2.73.76-2.73,3.09v2.39c0,2.33.89,3.11,2.73,3.11h.15C120.77,48.8,121.74,48,121.74,45.69Z"/><path d="M128.54,44.91v.83c0,2.41.89,3.11,2.93,3.11h.11c1.72,0,2.37-.56,2.53-1v-.47h1.54v1.08c-.38.76-1.58,1.74-4.09,1.74h-.07c-3.06,0-4.52-1.3-4.52-4.56V43.37c0-3.29,1.52-4.59,4.39-4.59h.09c2.86,0,4.38,1.3,4.38,4.59,0,.8,0,1.54,0,1.54Zm0-1.77v.56h5.73v-.56c0-2.35-.88-3-2.78-3h-.13C129.41,40.12,128.54,40.79,128.54,43.14Z"/><path d="M147.78,50h-1.54c-1,0-1.5-.53-1.5-1.67V35h1.57V48.09c0,.36.11.53.55.53h.92Z"/><path d="M154.45,38.8c2.6,0,4,1,4,3.58V50H157V48.78h0c-.34.63-1.34,1.34-3.18,1.34h-.38c-2.66,0-3.6-1.2-3.6-3.08v-.23c0-1.88,1.07-3,3.94-3h3.15V42.47c0-1.88-1-2.28-2.48-2.28h-.23c-1.63,0-2.23.56-2.23,1v.38H150.4v-1c.25-.76,1.25-1.77,3.76-1.77Zm-.25,10c1.75,0,2.71-.74,2.71-2.29V45h-3.15c-1.68,0-2.4.56-2.4,1.79V47c0,1.23.56,1.84,2.31,1.84Z"/><path d="M177.61,38.38H176v-.81c-.29-.58-1.11-1.21-2.88-1.21h-.29c-2.37,0-3.47.83-3.47,3.74V45c0,2.91,1.1,3.73,3.47,3.73h.29c1.77,0,2.59-.62,2.88-1.2V46.7h1.66v1.37c-.4,1-1.68,2.12-4.52,2.12h-.36c-3.22,0-5-1.34-5-5.19V40.08c0-3.85,1.85-5.19,5-5.19h.36c2.82,0,4.09,1.16,4.52,2.12Z"/><path d="M182.8,39V50h-1.59V40.37h-1.47V39Zm-1.56-4.07h1.56v2.32h-1.56Z"/><path d="M188,44.91v.83c0,2.41.89,3.11,2.93,3.11h.11c1.72,0,2.37-.56,2.53-1v-.47h1.54v1.08c-.38.76-1.59,1.74-4.09,1.74H191c-3.06,0-4.52-1.3-4.52-4.56V43.37c0-3.29,1.52-4.59,4.39-4.59H191c2.86,0,4.38,1.3,4.38,4.59,0,.8,0,1.54,0,1.54Zm0-1.77v.56h5.73v-.56c0-2.35-.88-3-2.78-3h-.13C188.91,40.12,188,40.79,188,43.14Zm3.58-5.41h-1.48l-1.68-2.89h1.64Z"/><path d="M203.86,38.87c2,0,3.56.87,3.56,3.58V50h-1.57v-7.4c0-1.75-.94-2.35-2.55-2.35h-.25c-1.79,0-2.71.83-2.71,2.19V50h-1.56V39h1.48v1.45a3.62,3.62,0,0,1,3.31-1.54Z"/><path d="M219.3,41.82h-1.55v-.6c-.15-.4-.78-1-2.3-1h-.07c-1.79,0-2.79.56-2.79,3v2.55c0,2.44,1,3,2.79,3h.07c1.52,0,2.15-.6,2.3-1v-.6h1.55v1.32c-.4.78-1.57,1.7-3.81,1.7h-.18c-2.66,0-4.31-1.16-4.31-4.43V43.23c0-3.26,1.65-4.41,4.31-4.41h.18c2.24,0,3.41.88,3.81,1.68Z"/><path d="M224.4,39V50h-1.59V40.37h-1.48V39Zm-1.57-4.07h1.57v2.32h-1.57Z"/><path d="M232.41,38.8c2.6,0,4,1,4,3.58V50H235V48.78h0c-.34.63-1.34,1.34-3.18,1.34h-.38c-2.66,0-3.6-1.2-3.6-3.08v-.23c0-1.88,1.07-3,3.94-3h3.15V42.47c0-1.88-1-2.28-2.48-2.28h-.23c-1.63,0-2.23.56-2.23,1v.38h-1.57v-1c.25-.76,1.25-1.77,3.76-1.77Zm-.25,10c1.75,0,2.71-.74,2.71-2.29V45h-3.15c-1.68,0-2.4.56-2.4,1.79V47c0,1.23.56,1.84,2.31,1.84Z"/><path d="M247.67,39V50h-1.59V40.37h-1.47V39Zm-1.56-4.07h1.56v2.32h-1.56Z"/><path d="M260.22,50h-1.54c-1,0-1.5-.53-1.5-1.67V35h1.57V48.09c0,.36.11.53.56.53h.91Z"/><path d="M266.89,38.8c2.6,0,4,1,4,3.58V50h-1.48V48.78h0c-.33.63-1.34,1.34-3.18,1.34h-.38c-2.66,0-3.6-1.2-3.6-3.08v-.23c0-1.88,1.08-3,3.94-3h3.15V42.47c0-1.88-1-2.28-2.48-2.28h-.22c-1.64,0-2.24.56-2.24,1v.38h-1.57v-1c.25-.76,1.26-1.77,3.76-1.77Zm-.24,10c1.74,0,2.7-.74,2.7-2.29V45H266.2c-1.68,0-2.39.56-2.39,1.79V47c0,1.23.55,1.84,2.3,1.84Z"/><path d="M288.71,36.52h-4.09V50H283V36.52h-4.09V35h9.82Z"/><path d="M290.9,44.91v.83c0,2.41.9,3.11,2.93,3.11H294c1.72,0,2.37-.56,2.53-1v-.47H298v1.08c-.38.76-1.59,1.74-4.1,1.74h-.06c-3.07,0-4.52-1.3-4.52-4.56V43.37c0-3.29,1.52-4.59,4.38-4.59h.09c2.87,0,4.39,1.3,4.39,4.59,0,.8,0,1.54,0,1.54Zm0-1.77v.56h5.73v-.56c0-2.35-.87-3-2.77-3h-.14C291.78,40.12,290.9,40.79,290.9,43.14Zm3.58-5.41H293l-1.68-2.89H293Z"/><path d="M309.57,41.82H308v-.6c-.15-.4-.78-1-2.3-1h-.07c-1.79,0-2.8.56-2.8,3v2.55c0,2.44,1,3,2.8,3h.07c1.52,0,2.15-.6,2.3-1v-.6h1.55v1.32c-.41.78-1.57,1.7-3.81,1.7h-.18c-2.66,0-4.32-1.16-4.32-4.43V43.23c0-3.26,1.66-4.41,4.32-4.41h.18c2.24,0,3.4.88,3.81,1.68Z"/><path d="M318,38.87c2,0,3.56.87,3.56,3.58V50H320v-7.4c0-1.75-.94-2.35-2.55-2.35h-.24c-1.79,0-2.71.83-2.71,2.19V50h-1.57V39h1.48v1.45a3.64,3.64,0,0,1,3.31-1.54Z"/><path d="M327.27,39V50h-1.59V40.37H324.2V39Zm-1.57-4.07h1.57v2.32H325.7Z"/><path d="M339.24,41.82h-1.55v-.6c-.15-.4-.78-1-2.3-1h-.07c-1.79,0-2.8.56-2.8,3v2.55c0,2.44,1,3,2.8,3h.07c1.52,0,2.15-.6,2.3-1v-.6h1.55v1.32c-.41.78-1.57,1.7-3.81,1.7h-.18c-2.66,0-4.31-1.16-4.31-4.43V43.23c0-3.26,1.65-4.41,4.31-4.41h.18c2.24,0,3.4.88,3.81,1.68Z"/><path d="M346.35,38.8c2.6,0,4,1,4,3.58V50H348.9V48.78h0c-.33.63-1.34,1.34-3.18,1.34h-.38c-2.66,0-3.6-1.2-3.6-3.08v-.23c0-1.88,1.08-3,3.94-3h3.16V42.47c0-1.88-1-2.28-2.49-2.28h-.22c-1.64,0-2.24.56-2.24,1v.38H342.3v-1c.25-.76,1.26-1.77,3.76-1.77Zm-.24,10c1.74,0,2.71-.74,2.71-2.29V45h-3.16c-1.68,0-2.39.56-2.39,1.79V47c0,1.23.56,1.84,2.3,1.84Z"/><path d="M121.74,60h1.56V75h-1.54V73.56c-.61,1.14-1.7,1.61-3.31,1.61h-.07c-2.62,0-4-1.26-4-4.37V68.16c0-3.13,1.34-4.36,4-4.36h.07c1.58,0,2.7.45,3.31,1.59,0-.54,0-1.34,0-2Zm0,10.65v-2.4c0-2.32-1-3.08-2.85-3.08h-.15c-1.84,0-2.73.76-2.73,3.08v2.4c0,2.33.89,3.11,2.73,3.11h.15C120.77,73.78,121.74,73,121.74,70.67Z"/><path d="M128.54,69.89v.82c0,2.42.89,3.11,2.93,3.11h.11c1.72,0,2.37-.56,2.53-1v-.47h1.54v1.07c-.38.76-1.58,1.75-4.09,1.75h-.07c-3.06,0-4.52-1.3-4.52-4.57V68.34c0-3.29,1.52-4.58,4.39-4.58h.09c2.86,0,4.38,1.29,4.38,4.58,0,.81,0,1.55,0,1.55Zm0-1.77v.56h5.73v-.56c0-2.35-.88-3-2.78-3h-.13C129.41,65.1,128.54,65.77,128.54,68.12Z"/><path d="M154.45,63.35h-1.66v-.8c-.29-.58-1.11-1.21-2.88-1.21h-.29c-2.37,0-3.47.83-3.47,3.74V70c0,2.91,1.1,3.74,3.47,3.74h.29c1.77,0,2.59-.63,2.88-1.21v-.8h1.66V73c-.4,1-1.68,2.13-4.52,2.13h-.36c-3.22,0-5-1.35-5-5.19V65.05c0-3.85,1.85-5.19,5-5.19h.36c2.82,0,4.09,1.17,4.52,2.13Z"/><path d="M161.86,63.78c2.59,0,4,1,4,3.58V75h-1.47V73.76h0c-.34.62-1.35,1.34-3.18,1.34h-.38c-2.67,0-3.6-1.21-3.6-3.09v-.22c0-1.88,1.07-3,3.93-3h3.16V67.45c0-1.88-1-2.29-2.49-2.29h-.22c-1.63,0-2.24.56-2.24,1v.38h-1.56v-1c.24-.77,1.25-1.77,3.76-1.77Zm-.25,10c1.75,0,2.71-.74,2.71-2.28V70h-3.16c-1.67,0-2.39.56-2.39,1.79V72c0,1.23.56,1.83,2.3,1.83Z"/><path d="M174,75H172.2c-1.59,0-2-.76-2-1.92V65.34h-2V63.93h2v-3h1.59v3H174v1.41h-2.24v7.41c0,.67.2.85.83.85H174Z"/><path d="M180.85,63.78c2.6,0,4,1,4,3.58V75h-1.47V73.76h0c-.33.62-1.34,1.34-3.17,1.34h-.38c-2.67,0-3.61-1.21-3.61-3.09v-.22c0-1.88,1.08-3,3.94-3h3.16V67.45c0-1.88-1-2.29-2.49-2.29h-.22c-1.63,0-2.24.56-2.24,1v.38H176.8v-1c.25-.77,1.26-1.77,3.76-1.77Zm-.24,10c1.74,0,2.71-.74,2.71-2.28V70h-3.16c-1.68,0-2.39.56-2.39,1.79V72c0,1.23.56,1.83,2.3,1.83Z"/><path d="M191.82,75h-1.54c-1,0-1.5-.54-1.5-1.68V60h1.56v13c0,.36.11.54.56.54h.92Z"/><path d="M201.37,63.93h1.57V75h-1.45V73.53a3.48,3.48,0,0,1-3.25,1.57h-.42c-1.91,0-3.38-.85-3.38-3.56V63.93H196v7.41c0,1.75.88,2.35,2.38,2.35h.38c1.76,0,2.61-.83,2.61-2.19Z"/><path d="M212.07,63.84c2,0,3.56.88,3.56,3.58V75h-1.57V67.6c0-1.74-.94-2.35-2.55-2.35h-.25c-1.79,0-2.7.83-2.7,2.2V75H207V63.93h1.48v1.46a3.62,3.62,0,0,1,3.31-1.55Z"/><path d="M225.74,63.93h1.57v.94l-3.6,10L223,76.67a2.35,2.35,0,0,1-2.53,1.88H219.3V77.09h1.07a1.05,1.05,0,0,0,1.21-.8l.54-1.44h-.4l-3.63-10v-.94h1.57v.72L222,71.3c.29.82.67,2,.67,2h0s.38-1.17.67-2l2.35-6.65Z"/><path d="M233.89,63.78c2.59,0,4,1,4,3.58V75h-1.48V73.76h0c-.34.62-1.35,1.34-3.18,1.34h-.38c-2.66,0-3.6-1.21-3.6-3.09v-.22c0-1.88,1.07-3,3.93-3h3.16V67.45c0-1.88-1-2.29-2.48-2.29h-.23c-1.63,0-2.24.56-2.24,1v.38h-1.56v-1c.24-.77,1.25-1.77,3.76-1.77Zm-.25,10c1.75,0,2.71-.74,2.71-2.28V70h-3.16c-1.67,0-2.39.56-2.39,1.79V72c0,1.23.56,1.83,2.31,1.83Z"/><path d="M10.23.08H13v15H9.87V9.39c0-1.64,0-4,0-4h0l-2.33,4H7.45l-2.33-4h0s0,2.32,0,4v5.68H2V.08H4.77l2.7,4.56h0Z"/><path d="M38.87.08H40v1.1L26.07,15.07H25V14Z"/><path d="M63.84.08h1.1v1.1L51,15.07H50V14Z"/><path d="M88.81.08h1.1v1.1L76,15.07h-1.1V14Z"/><path d="M13.9,25.05H15v1.1L1.1,40H0V38.93Z"/><path d="M29.85,25.05l4.3,7.83c.31.56.8,1.53.8,1.53h0s-.11-2.06-.11-3.56v-5.8h3.17V40h-3l-4.3-7.83c-.31-.56-.81-1.52-.81-1.52h0s.11,2.06.11,3.56V40H26.87v-15Z"/><path d="M88.81,25.05h1.1v1.1L76,40h-1.1V38.93Z"/><path d="M12.75,54.28H9.51V53.4c-.16-.26-.74-.49-1.79-.49H7.63c-1.59,0-2.29.58-2.29,2.33V59.8c0,1.75.7,2.33,2.29,2.33h.09c1,0,1.63-.22,1.79-.49v-.87h3.24v2.66c-.69.78-2.3,1.68-5,1.68H7.69c-3.46,0-5.61-1.32-5.61-5.31V55.24c0-4,2.17-5.3,5.64-5.3h0c2.62,0,4.27.87,5,1.67Z"/><path d="M38.87,50H40v1.09L26.07,65H25V63.9Z"/><path d="M63.84,50h1.1v1.09L51,65H50V63.9Z"/><path d="M88.81,50h1.1v1.09L76,65h-1.1V63.9Z"/><path d="M13.9,75H15v1.09L1.1,90H0V88.87Z"/><path d="M38,78H34.1V90H30.84V78H27V75H38Z"/><path d="M62.6,90H52.28V75H62.6v3H55.55v2.86h6.67v3H55.55V87H62.6Z"/><path d="M87.72,79.25H84.47v-.87c-.15-.27-.74-.5-1.79-.5h-.09c-1.58,0-2.28.59-2.28,2.33v4.57c0,1.74.7,2.32,2.28,2.32h.09c1,0,1.64-.22,1.79-.49v-.87h3.25V88.4c-.7.78-2.31,1.68-5,1.68h-.09c-3.47,0-5.62-1.32-5.62-5.3V80.21c0-4,2.17-5.3,5.64-5.3h0c2.62,0,4.27.87,5,1.68Z"/><path d="M59.8,25.13l3.87,13v2H60.4V38.24l-.31-1.1H54.74l-.31,1.1v1.88H51.16v-2L55,25.13Zm-4.23,9.06h3.69l-1.19-4.14c-.29-1-.51-1.93-.51-1.93h-.29s-.22.9-.52,1.93Z"/></svg>